<svg width="56" height="22" viewBox="0 0 56 22" fill="none" xmlns="http://www.w3.org/2000/svg">
<path opacity="0.7" d="M4 6.48002L1.2 8.34002V5.88002L4 4.00002H6.4V18H4V6.48002ZM14.0922 18.2C13.3322 18.2 12.6455 18.08 12.0322 17.84C11.4189 17.5867 10.8922 17.2134 10.4522 16.72C10.0122 16.2134 9.67219 15.58 9.43219 14.82C9.20552 14.0467 9.09219 13.1467 9.09219 12.12V11.08C9.09219 9.78669 9.21885 8.68002 9.47219 7.76002C9.72552 6.84002 10.0789 6.08669 10.5322 5.50002C10.9989 4.91336 11.5455 4.48669 12.1722 4.22002C12.8122 3.94002 13.5189 3.80002 14.2922 3.80002C14.8922 3.80002 15.4322 3.88669 15.9122 4.06002C16.4055 4.23336 16.8322 4.48002 17.1922 4.80002C17.5522 5.10669 17.8455 5.47336 18.0722 5.90002C18.3122 6.32669 18.4855 6.79336 18.5922 7.30002H16.1322C15.9855 6.95336 15.7589 6.66002 15.4522 6.42002C15.1455 6.16669 14.7255 6.04002 14.1922 6.04002C13.8055 6.04002 13.4455 6.11336 13.1122 6.26002C12.7789 6.39336 12.4922 6.61336 12.2522 6.92002C12.0122 7.21336 11.8189 7.60002 11.6722 8.08002C11.5255 8.56002 11.4389 9.14002 11.4122 9.82002C12.1722 9.02002 13.1322 8.62002 14.2922 8.62002C15.7322 8.62002 16.8589 9.03336 17.6722 9.86002C18.4855 10.6734 18.8922 11.8134 18.8922 13.28V13.52C18.8922 14.2 18.7722 14.8267 18.5322 15.4C18.3055 15.9734 17.9789 16.4667 17.5522 16.88C17.1389 17.2934 16.6322 17.62 16.0322 17.86C15.4455 18.0867 14.7989 18.2 14.0922 18.2ZM11.6122 13.52C11.6122 14.28 11.8255 14.88 12.2522 15.32C12.6922 15.7467 13.3055 15.96 14.0922 15.96C14.7722 15.96 15.3189 15.7467 15.7322 15.32C16.1589 14.88 16.3722 14.28 16.3722 13.52V13.28C16.3722 12.52 16.1589 11.9267 15.7322 11.5C15.3189 11.0734 14.7722 10.86 14.0922 10.86C13.3055 10.86 12.6922 11.0734 12.2522 11.5C11.8255 11.9267 11.6122 12.52 11.6122 13.28V13.52ZM25.5867 18.2C24.9867 18.2 24.4401 18.1134 23.9467 17.94C23.4667 17.7667 23.0467 17.5267 22.6867 17.22C22.3267 16.9 22.0267 16.5267 21.7867 16.1C21.5467 15.6734 21.3801 15.2067 21.2867 14.7H23.7467C23.8934 15.0467 24.1201 15.3467 24.4267 15.6C24.7334 15.84 25.1534 15.96 25.6867 15.96C26.0734 15.96 26.4267 15.8934 26.7467 15.76C27.0667 15.6267 27.3401 15.4134 27.5667 15.12C27.8067 14.8267 27.9934 14.44 28.1267 13.96C28.2601 13.48 28.3401 12.8867 28.3667 12.18C27.6067 12.98 26.6467 13.38 25.4867 13.38C24.0467 13.38 22.9201 12.9734 22.1067 12.16C21.2934 11.3334 20.8867 10.1867 20.8867 8.72002V8.48002C20.8867 7.78669 21.0001 7.15336 21.2267 6.58002C21.4534 6.00669 21.7734 5.51336 22.1867 5.10002C22.6134 4.68669 23.1201 4.36669 23.7067 4.14002C24.3067 3.91336 24.9667 3.80002 25.6867 3.80002C26.4467 3.80002 27.1334 3.92669 27.7467 4.18002C28.3601 4.42002 28.8867 4.79336 29.3267 5.30002C29.7667 5.79336 30.1001 6.42669 30.3267 7.20002C30.5667 7.96002 30.6867 8.85336 30.6867 9.88002V10.92C30.6867 12.24 30.5667 13.3667 30.3267 14.3C30.0867 15.22 29.7401 15.9734 29.2867 16.56C28.8467 17.1334 28.3134 17.5534 27.6867 17.82C27.0601 18.0734 26.3601 18.2 25.5867 18.2ZM23.4067 8.72002C23.4067 9.48002 23.6134 10.0734 24.0267 10.5C24.4534 10.9267 25.0067 11.14 25.6867 11.14C26.4734 11.14 27.0801 10.9267 27.5067 10.5C27.9467 10.0734 28.1667 9.48002 28.1667 8.72002V8.48002C28.1667 7.72002 27.9467 7.12669 27.5067 6.70002C27.0801 6.26002 26.4734 6.04002 25.6867 6.04002C25.0067 6.04002 24.4534 6.26002 24.0267 6.70002C23.6134 7.12669 23.4067 7.72002 23.4067 8.48002V8.72002ZM37.8813 18.2C37.1079 18.2 36.4079 18.08 35.7813 17.84C35.1679 17.5867 34.6479 17.1934 34.2213 16.66C33.7946 16.1267 33.4613 15.44 33.2213 14.6C32.9946 13.7467 32.8813 12.72 32.8813 11.52V10.48C32.8813 9.29336 32.9946 8.28002 33.2213 7.44002C33.4613 6.58669 33.7946 5.89336 34.2213 5.36002C34.6613 4.81336 35.1879 4.42002 35.8013 4.18002C36.4146 3.92669 37.1079 3.80002 37.8813 3.80002C38.6546 3.80002 39.3479 3.92669 39.9613 4.18002C40.5879 4.42002 41.1146 4.80669 41.5413 5.34002C41.9813 5.87336 42.3146 6.56669 42.5413 7.42002C42.7679 8.26002 42.8813 9.28002 42.8813 10.48V11.52C42.8813 12.7067 42.7613 13.7267 42.5213 14.58C42.2946 15.42 41.9613 16.1134 41.5213 16.66C41.0946 17.1934 40.5746 17.5867 39.9613 17.84C39.3479 18.08 38.6546 18.2 37.8813 18.2ZM37.8813 15.96C38.2679 15.96 38.6146 15.8934 38.9213 15.76C39.2279 15.6267 39.4879 15.3934 39.7013 15.06C39.9146 14.7267 40.0746 14.2734 40.1813 13.7C40.3013 13.1267 40.3613 12.4 40.3613 11.52V10.48C40.3613 9.61336 40.3013 8.89336 40.1813 8.32002C40.0613 7.74669 39.8946 7.29336 39.6813 6.96002C39.4679 6.61336 39.2079 6.37336 38.9013 6.24002C38.5946 6.10669 38.2546 6.04002 37.8813 6.04002C37.4946 6.04002 37.1479 6.10669 36.8413 6.24002C36.5346 6.37336 36.2746 6.60669 36.0613 6.94002C35.8479 7.27336 35.6813 7.72669 35.5613 8.30002C35.4546 8.87336 35.4013 9.60002 35.4013 10.48V11.52C35.4013 12.3867 35.4546 13.1067 35.5613 13.68C35.6813 14.2534 35.8479 14.7134 36.0613 15.06C36.2879 15.3934 36.5479 15.6267 36.8413 15.76C37.1479 15.8934 37.4946 15.96 37.8813 15.96ZM45.3883 4.00002H50.2883C52.1016 4.00002 53.4349 4.40669 54.2883 5.22002C55.1549 6.02002 55.5883 7.15336 55.5883 8.62002C55.5883 10.0734 55.1483 11.2134 54.2683 12.04C53.3883 12.8667 52.0616 13.28 50.2883 13.28H47.7883V18H45.3883V4.00002ZM47.7883 6.20002V11.08H50.1883C51.2149 11.08 51.9483 10.8734 52.3883 10.46C52.8416 10.0467 53.0683 9.43336 53.0683 8.62002C53.0683 7.86002 52.8349 7.26669 52.3683 6.84002C51.9016 6.41336 51.1749 6.20002 50.1883 6.20002H47.7883Z" fill="#2D3242"/>
<line x1="0.689324" y1="18.1367" x2="52.9677" y2="1.04951" stroke="#FD4D35" stroke-width="2"/>
<line x1="1.31068" y1="1.04948" x2="53.589" y2="18.1367" stroke="#FD4D35" stroke-width="2"/>
</svg>
