<svg width="50" height="22" viewBox="0 0 50 22" fill="none" xmlns="http://www.w3.org/2000/svg">
<path opacity="0.7" d="M6.7 18.2C6.1 18.2 5.55333 18.1133 5.06 17.94C4.58 17.7667 4.16 17.5267 3.8 17.22C3.44 16.9 3.14 16.5267 2.9 16.1C2.66 15.6733 2.49333 15.2067 2.4 14.7H4.86C5.00667 15.0467 5.23333 15.3467 5.54 15.6C5.84667 15.84 6.26667 15.96 6.8 15.96C7.18667 15.96 7.54 15.8933 7.86 15.76C8.18 15.6267 8.45333 15.4133 8.68 15.12C8.92 14.8267 9.10667 14.44 9.24 13.96C9.37333 13.48 9.45333 12.8867 9.48 12.18C8.72 12.98 7.76 13.38 6.6 13.38C5.16 13.38 4.03333 12.9733 3.22 12.16C2.40667 11.3333 2 10.1867 2 8.72V8.48C2 7.78667 2.11333 7.15333 2.34 6.58C2.56667 6.00667 2.88667 5.51333 3.3 5.1C3.72667 4.68667 4.23333 4.36667 4.82 4.14C5.42 3.91333 6.08 3.8 6.8 3.8C7.56 3.8 8.24667 3.92667 8.86 4.18C9.47333 4.42 10 4.79333 10.44 5.3C10.88 5.79333 11.2133 6.42667 11.44 7.2C11.68 7.96 11.8 8.85333 11.8 9.88V10.92C11.8 12.24 11.68 13.3667 11.44 14.3C11.2 15.22 10.8533 15.9733 10.4 16.56C9.96 17.1333 9.42667 17.5533 8.8 17.82C8.17333 18.0733 7.47333 18.2 6.7 18.2ZM4.52 8.72C4.52 9.48 4.72667 10.0733 5.14 10.5C5.56667 10.9267 6.12 11.14 6.8 11.14C7.58667 11.14 8.19333 10.9267 8.62 10.5C9.06 10.0733 9.28 9.48 9.28 8.72V8.48C9.28 7.72 9.06 7.12667 8.62 6.7C8.19333 6.26 7.58667 6.04 6.8 6.04C6.12 6.04 5.56667 6.26 5.14 6.7C4.72667 7.12667 4.52 7.72 4.52 8.48V8.72ZM18.5945 18.2C17.9945 18.2 17.4479 18.1133 16.9545 17.94C16.4745 17.7667 16.0545 17.5267 15.6945 17.22C15.3345 16.9 15.0345 16.5267 14.7945 16.1C14.5545 15.6733 14.3879 15.2067 14.2945 14.7H16.7545C16.9012 15.0467 17.1279 15.3467 17.4345 15.6C17.7412 15.84 18.1612 15.96 18.6945 15.96C19.0812 15.96 19.4345 15.8933 19.7545 15.76C20.0745 15.6267 20.3479 15.4133 20.5745 15.12C20.8145 14.8267 21.0012 14.44 21.1345 13.96C21.2679 13.48 21.3479 12.8867 21.3745 12.18C20.6145 12.98 19.6545 13.38 18.4945 13.38C17.0545 13.38 15.9279 12.9733 15.1145 12.16C14.3012 11.3333 13.8945 10.1867 13.8945 8.72V8.48C13.8945 7.78667 14.0079 7.15333 14.2345 6.58C14.4612 6.00667 14.7812 5.51333 15.1945 5.1C15.6212 4.68667 16.1279 4.36667 16.7145 4.14C17.3145 3.91333 17.9745 3.8 18.6945 3.8C19.4545 3.8 20.1412 3.92667 20.7545 4.18C21.3679 4.42 21.8945 4.79333 22.3345 5.3C22.7745 5.79333 23.1079 6.42667 23.3345 7.2C23.5745 7.96 23.6945 8.85333 23.6945 9.88V10.92C23.6945 12.24 23.5745 13.3667 23.3345 14.3C23.0945 15.22 22.7479 15.9733 22.2945 16.56C21.8545 17.1333 21.3212 17.5533 20.6945 17.82C20.0679 18.0733 19.3679 18.2 18.5945 18.2ZM16.4145 8.72C16.4145 9.48 16.6212 10.0733 17.0345 10.5C17.4612 10.9267 18.0145 11.14 18.6945 11.14C19.4812 11.14 20.0879 10.9267 20.5145 10.5C20.9545 10.0733 21.1745 9.48 21.1745 8.72V8.48C21.1745 7.72 20.9545 7.12667 20.5145 6.7C20.0879 6.26 19.4812 6.04 18.6945 6.04C18.0145 6.04 17.4612 6.26 17.0345 6.7C16.6212 7.12667 16.4145 7.72 16.4145 8.48V8.72ZM30.4891 18.2C29.8891 18.2 29.3424 18.1133 28.8491 17.94C28.3691 17.7667 27.9491 17.5267 27.5891 17.22C27.2291 16.9 26.9291 16.5267 26.6891 16.1C26.4491 15.6733 26.2824 15.2067 26.1891 14.7H28.6491C28.7957 15.0467 29.0224 15.3467 29.3291 15.6C29.6357 15.84 30.0557 15.96 30.5891 15.96C30.9757 15.96 31.3291 15.8933 31.6491 15.76C31.9691 15.6267 32.2424 15.4133 32.4691 15.12C32.7091 14.8267 32.8957 14.44 33.0291 13.96C33.1624 13.48 33.2424 12.8867 33.2691 12.18C32.5091 12.98 31.5491 13.38 30.3891 13.38C28.9491 13.38 27.8224 12.9733 27.0091 12.16C26.1957 11.3333 25.7891 10.1867 25.7891 8.72V8.48C25.7891 7.78667 25.9024 7.15333 26.1291 6.58C26.3557 6.00667 26.6757 5.51333 27.0891 5.1C27.5157 4.68667 28.0224 4.36667 28.6091 4.14C29.2091 3.91333 29.8691 3.8 30.5891 3.8C31.3491 3.8 32.0357 3.92667 32.6491 4.18C33.2624 4.42 33.7891 4.79333 34.2291 5.3C34.6691 5.79333 35.0024 6.42667 35.2291 7.2C35.4691 7.96 35.5891 8.85333 35.5891 9.88V10.92C35.5891 12.24 35.4691 13.3667 35.2291 14.3C34.9891 15.22 34.6424 15.9733 34.1891 16.56C33.7491 17.1333 33.2157 17.5533 32.5891 17.82C31.9624 18.0733 31.2624 18.2 30.4891 18.2ZM28.3091 8.72C28.3091 9.48 28.5157 10.0733 28.9291 10.5C29.3557 10.9267 29.9091 11.14 30.5891 11.14C31.3757 11.14 31.9824 10.9267 32.4091 10.5C32.8491 10.0733 33.0691 9.48 33.0691 8.72V8.48C33.0691 7.72 32.8491 7.12667 32.4091 6.7C31.9824 6.26 31.3757 6.04 30.5891 6.04C29.9091 6.04 29.3557 6.26 28.9291 6.7C28.5157 7.12667 28.3091 7.72 28.3091 8.48V8.72ZM38.0836 4H42.9836C44.7969 4 46.1303 4.40667 46.9836 5.22C47.8503 6.02 48.2836 7.15333 48.2836 8.62C48.2836 10.0733 47.8436 11.2133 46.9636 12.04C46.0836 12.8667 44.7569 13.28 42.9836 13.28H40.4836V18H38.0836V4ZM40.4836 6.2V11.08H42.8836C43.9103 11.08 44.6436 10.8733 45.0836 10.46C45.5369 10.0467 45.7636 9.43333 45.7636 8.62C45.7636 7.86 45.5303 7.26667 45.0636 6.84C44.5969 6.41333 43.8703 6.2 42.8836 6.2H40.4836Z" fill="#2D3242"/>
<line x1="1.1239" y1="17.5959" x2="48.6893" y2="2.04948" stroke="#FD4D35" stroke-width="2"/>
<line x1="1.34681" y1="1.93742" x2="49.3688" y2="17.6334" stroke="#FD4D35" stroke-width="2"/>
</svg>
