<svg width="60" height="22" viewBox="0 0 60 22" fill="none" xmlns="http://www.w3.org/2000/svg">
<path opacity="0.7" d="M5.7 18.2C5.06 18.2 4.46 18.12 3.9 17.96C3.34 17.7867 2.84 17.54 2.4 17.22C1.97333 16.9 1.61333 16.5067 1.32 16.04C1.02667 15.5733 0.82 15.04 0.7 14.44H3.22C3.42 14.9467 3.73333 15.3267 4.16 15.58C4.6 15.8333 5.11333 15.96 5.7 15.96C6.46 15.96 7.06 15.7333 7.5 15.28C7.95333 14.8133 8.18 14.16 8.18 13.32C8.18 12.48 7.95333 11.8333 7.5 11.38C7.06 10.9267 6.46 10.7 5.7 10.7C5.18 10.7 4.72 10.8067 4.32 11.02C3.93333 11.2333 3.63333 11.5 3.42 11.82H1.1L1.7 4H9.8V6.12H3.86L3.6 9.22C4.29333 8.71333 5.12667 8.46 6.1 8.46C6.78 8.46 7.4 8.57333 7.96 8.8C8.53333 9.02667 9.02 9.35333 9.42 9.78C9.82 10.2067 10.1333 10.72 10.36 11.32C10.5867 11.92 10.7 12.5867 10.7 13.32C10.7 14.0667 10.5867 14.74 10.36 15.34C10.1333 15.94 9.8 16.4533 9.36 16.88C8.93333 17.2933 8.40667 17.62 7.78 17.86C7.16667 18.0867 6.47333 18.2 5.7 18.2ZM17.0086 18.2C16.4086 18.2 15.8619 18.1133 15.3686 17.94C14.8886 17.7667 14.4686 17.5267 14.1086 17.22C13.7486 16.9 13.4486 16.5267 13.2086 16.1C12.9686 15.6733 12.8019 15.2067 12.7086 14.7H15.1686C15.3153 15.0467 15.5419 15.3467 15.8486 15.6C16.1553 15.84 16.5753 15.96 17.1086 15.96C17.4953 15.96 17.8486 15.8933 18.1686 15.76C18.4886 15.6267 18.7619 15.4133 18.9886 15.12C19.2286 14.8267 19.4153 14.44 19.5486 13.96C19.6819 13.48 19.7619 12.8867 19.7886 12.18C19.0286 12.98 18.0686 13.38 16.9086 13.38C15.4686 13.38 14.3419 12.9733 13.5286 12.16C12.7153 11.3333 12.3086 10.1867 12.3086 8.72V8.48C12.3086 7.78667 12.4219 7.15333 12.6486 6.58C12.8753 6.00667 13.1953 5.51333 13.6086 5.1C14.0353 4.68667 14.5419 4.36667 15.1286 4.14C15.7286 3.91333 16.3886 3.8 17.1086 3.8C17.8686 3.8 18.5553 3.92667 19.1686 4.18C19.7819 4.42 20.3086 4.79333 20.7486 5.3C21.1886 5.79333 21.5219 6.42667 21.7486 7.2C21.9886 7.96 22.1086 8.85333 22.1086 9.88V10.92C22.1086 12.24 21.9886 13.3667 21.7486 14.3C21.5086 15.22 21.1619 15.9733 20.7086 16.56C20.2686 17.1333 19.7353 17.5533 19.1086 17.82C18.4819 18.0733 17.7819 18.2 17.0086 18.2ZM14.8286 8.72C14.8286 9.48 15.0353 10.0733 15.4486 10.5C15.8753 10.9267 16.4286 11.14 17.1086 11.14C17.8953 11.14 18.5019 10.9267 18.9286 10.5C19.3686 10.0733 19.5886 9.48 19.5886 8.72V8.48C19.5886 7.72 19.3686 7.12667 18.9286 6.7C18.5019 6.26 17.8953 6.04 17.1086 6.04C16.4286 6.04 15.8753 6.26 15.4486 6.7C15.0353 7.12667 14.8286 7.72 14.8286 8.48V8.72ZM28.9031 18.2C28.3031 18.2 27.7565 18.1133 27.2631 17.94C26.7831 17.7667 26.3631 17.5267 26.0031 17.22C25.6431 16.9 25.3431 16.5267 25.1031 16.1C24.8631 15.6733 24.6965 15.2067 24.6031 14.7H27.0631C27.2098 15.0467 27.4365 15.3467 27.7431 15.6C28.0498 15.84 28.4698 15.96 29.0031 15.96C29.3898 15.96 29.7431 15.8933 30.0631 15.76C30.3831 15.6267 30.6565 15.4133 30.8831 15.12C31.1231 14.8267 31.3098 14.44 31.4431 13.96C31.5765 13.48 31.6565 12.8867 31.6831 12.18C30.9231 12.98 29.9631 13.38 28.8031 13.38C27.3631 13.38 26.2365 12.9733 25.4231 12.16C24.6098 11.3333 24.2031 10.1867 24.2031 8.72V8.48C24.2031 7.78667 24.3165 7.15333 24.5431 6.58C24.7698 6.00667 25.0898 5.51333 25.5031 5.1C25.9298 4.68667 26.4365 4.36667 27.0231 4.14C27.6231 3.91333 28.2831 3.8 29.0031 3.8C29.7631 3.8 30.4498 3.92667 31.0631 4.18C31.6765 4.42 32.2031 4.79333 32.6431 5.3C33.0831 5.79333 33.4165 6.42667 33.6431 7.2C33.8831 7.96 34.0031 8.85333 34.0031 9.88V10.92C34.0031 12.24 33.8831 13.3667 33.6431 14.3C33.4031 15.22 33.0565 15.9733 32.6031 16.56C32.1631 17.1333 31.6298 17.5533 31.0031 17.82C30.3765 18.0733 29.6765 18.2 28.9031 18.2ZM26.7231 8.72C26.7231 9.48 26.9298 10.0733 27.3431 10.5C27.7698 10.9267 28.3231 11.14 29.0031 11.14C29.7898 11.14 30.3965 10.9267 30.8231 10.5C31.2631 10.0733 31.4831 9.48 31.4831 8.72V8.48C31.4831 7.72 31.2631 7.12667 30.8231 6.7C30.3965 6.26 29.7898 6.04 29.0031 6.04C28.3231 6.04 27.7698 6.26 27.3431 6.7C26.9298 7.12667 26.7231 7.72 26.7231 8.48V8.72ZM41.1977 18.2C40.4243 18.2 39.7243 18.08 39.0977 17.84C38.4843 17.5867 37.9643 17.1933 37.5377 16.66C37.111 16.1267 36.7777 15.44 36.5377 14.6C36.311 13.7467 36.1977 12.72 36.1977 11.52V10.48C36.1977 9.29333 36.311 8.28 36.5377 7.44C36.7777 6.58667 37.111 5.89333 37.5377 5.36C37.9777 4.81333 38.5043 4.42 39.1177 4.18C39.731 3.92667 40.4243 3.8 41.1977 3.8C41.971 3.8 42.6643 3.92667 43.2777 4.18C43.9043 4.42 44.431 4.80667 44.8577 5.34C45.2977 5.87333 45.631 6.56667 45.8577 7.42C46.0843 8.26 46.1977 9.28 46.1977 10.48V11.52C46.1977 12.7067 46.0777 13.7267 45.8377 14.58C45.611 15.42 45.2777 16.1133 44.8377 16.66C44.411 17.1933 43.891 17.5867 43.2777 17.84C42.6643 18.08 41.971 18.2 41.1977 18.2ZM41.1977 15.96C41.5843 15.96 41.931 15.8933 42.2377 15.76C42.5443 15.6267 42.8043 15.3933 43.0177 15.06C43.231 14.7267 43.391 14.2733 43.4977 13.7C43.6177 13.1267 43.6777 12.4 43.6777 11.52V10.48C43.6777 9.61333 43.6177 8.89333 43.4977 8.32C43.3777 7.74667 43.211 7.29333 42.9977 6.96C42.7843 6.61333 42.5243 6.37333 42.2177 6.24C41.911 6.10667 41.571 6.04 41.1977 6.04C40.811 6.04 40.4643 6.10667 40.1577 6.24C39.851 6.37333 39.591 6.60667 39.3777 6.94C39.1643 7.27333 38.9977 7.72667 38.8777 8.3C38.771 8.87333 38.7177 9.6 38.7177 10.48V11.52C38.7177 12.3867 38.771 13.1067 38.8777 13.68C38.9977 14.2533 39.1643 14.7133 39.3777 15.06C39.6043 15.3933 39.8643 15.6267 40.1577 15.76C40.4643 15.8933 40.811 15.96 41.1977 15.96ZM48.7047 4H53.6047C55.418 4 56.7514 4.40667 57.6047 5.22C58.4714 6.02 58.9047 7.15333 58.9047 8.62C58.9047 10.0733 58.4647 11.2133 57.5847 12.04C56.7047 12.8667 55.378 13.28 53.6047 13.28H51.1047V18H48.7047V4ZM51.1047 6.2V11.08H53.5047C54.5314 11.08 55.2647 10.8733 55.7047 10.46C56.158 10.0467 56.3847 9.43333 56.3847 8.62C56.3847 7.86 56.1514 7.26667 55.6847 6.84C55.218 6.41333 54.4914 6.2 53.5047 6.2H51.1047Z" fill="#2D3242"/>
<line x1="0.689324" y1="20.6901" x2="57.7203" y2="2.04949" stroke="#FD4D35" stroke-width="2"/>
<line x1="1.31068" y1="2.04948" x2="58.3416" y2="20.6901" stroke="#FD4D35" stroke-width="2"/>
</svg>
