<svg width="70" height="70" viewBox="0 0 70 70" fill="none" xmlns="http://www.w3.org/2000/svg">
<path d="M29.6432 4.66458C32.7139 1.99069 37.2861 1.99069 40.3568 4.66458C42.1516 6.22742 44.5393 6.92854 46.8941 6.58412C50.923 5.99484 54.7694 8.46677 55.907 12.3763C56.5719 14.6614 58.2016 16.5421 60.3688 17.5255C64.0766 19.2079 65.976 23.367 64.8194 27.2709C64.1433 29.5527 64.4975 32.016 65.789 34.0149C67.9987 37.4349 67.348 41.9606 64.2643 44.6195C62.4619 46.1735 61.4281 48.4372 61.4339 50.8171C61.4439 54.8888 58.4497 58.3442 54.418 58.9139C52.0616 59.2468 49.9681 60.5923 48.6863 62.5974C46.4933 66.0281 42.1063 67.3163 38.4067 65.6158C36.2443 64.6219 33.7557 64.6219 31.5933 65.6158C27.8937 67.3163 23.5067 66.0281 21.3137 62.5974C20.0319 60.5923 17.9384 59.2468 15.582 58.9139C11.5503 58.3442 8.55615 54.8888 8.56606 50.8171C8.57186 48.4372 7.53806 46.1735 5.7357 44.6195C2.65203 41.9606 2.00133 37.4349 4.211 34.0149C5.50251 32.016 5.85668 29.5527 5.18064 27.2709C4.02399 23.367 5.92336 19.2079 9.63123 17.5255C11.7984 16.5421 13.4281 14.6614 14.093 12.3763C15.2306 8.46677 19.077 5.99484 23.1059 6.58412C25.4607 6.92854 27.8484 6.22742 29.6432 4.66458Z" fill="#FD4D35"/>
<path d="M12.5996 36.7146H19.1328V38.2452H12.5996V36.7146ZM26.883 30.872H20.3498V29.2667H28.7497V30.872L24.0271 42.3332H22.1231L26.883 30.872ZM34.7317 42.4825C34.0473 42.4825 33.425 42.3705 32.865 42.1465C32.3175 41.9225 31.8508 41.5679 31.4651 41.0825C31.0793 40.5848 30.7806 39.9501 30.5691 39.1785C30.3575 38.3946 30.2517 37.4488 30.2517 36.3413V35.2586C30.2517 34.1635 30.3575 33.2302 30.5691 32.4586C30.7806 31.6746 31.0793 31.04 31.4651 30.5547C31.8633 30.0569 32.3362 29.696 32.8837 29.472C33.4437 29.2356 34.0597 29.1173 34.7317 29.1173C35.4161 29.1173 36.0321 29.2293 36.5797 29.4533C37.1397 29.6773 37.6125 30.0382 37.9983 30.536C38.3841 31.0213 38.6827 31.656 38.8943 32.44C39.1059 33.2115 39.2116 34.1511 39.2116 35.2586V36.3413C39.2116 37.4364 39.1059 38.3759 38.8943 39.1599C38.6827 39.9314 38.3779 40.5661 37.9796 41.0639C37.5939 41.5492 37.121 41.9101 36.561 42.1465C36.0135 42.3705 35.4037 42.4825 34.7317 42.4825ZM34.7317 40.8025C35.1424 40.8025 35.5095 40.7341 35.833 40.5972C36.169 40.4479 36.449 40.2052 36.673 39.8692C36.897 39.5208 37.0712 39.0603 37.1957 38.4879C37.3201 37.9155 37.3823 37.1999 37.3823 36.3413V35.2586C37.3823 34.3999 37.3201 33.6906 37.1957 33.1306C37.0712 32.5582 36.8908 32.0978 36.6543 31.7493C36.4303 31.4009 36.1503 31.1582 35.8143 31.0213C35.4908 30.872 35.1299 30.7973 34.7317 30.7973C34.321 30.7973 33.9477 30.872 33.6117 31.0213C33.2882 31.1582 33.0144 31.4009 32.7904 31.7493C32.5664 32.0853 32.3922 32.5395 32.2677 33.112C32.1433 33.6844 32.0811 34.3999 32.0811 35.2586V36.3413C32.0811 37.1999 32.1433 37.9155 32.2677 38.4879C32.3922 39.0479 32.5664 39.5021 32.7904 39.8505C33.0268 40.199 33.3068 40.4479 33.6304 40.5972C33.9664 40.7341 34.3335 40.8025 34.7317 40.8025ZM44.3515 35.9493C43.8786 35.9493 43.443 35.8746 43.0448 35.7253C42.659 35.5759 42.323 35.3644 42.0368 35.0906C41.763 34.8168 41.5515 34.4933 41.4022 34.1199C41.2528 33.7466 41.1782 33.336 41.1782 32.888V32.1786C41.1782 31.7306 41.2528 31.32 41.4022 30.9467C41.5515 30.5733 41.763 30.2498 42.0368 29.976C42.323 29.7022 42.659 29.4907 43.0448 29.3413C43.443 29.192 43.8786 29.1173 44.3515 29.1173C44.8243 29.1173 45.2537 29.192 45.6394 29.3413C46.0252 29.4907 46.355 29.7022 46.6288 29.976C46.915 30.2498 47.1328 30.5733 47.2821 30.9467C47.4439 31.32 47.5248 31.7306 47.5248 32.1786V32.888C47.5248 33.336 47.4439 33.7466 47.2821 34.1199C47.1328 34.4933 46.915 34.8168 46.6288 35.0906C46.355 35.3644 46.0252 35.5759 45.6394 35.7253C45.2537 35.8746 44.8243 35.9493 44.3515 35.9493ZM44.3515 34.4933C44.8368 34.4933 45.2163 34.3564 45.4901 34.0826C45.7763 33.8088 45.9194 33.4106 45.9194 32.888V32.1786C45.9194 31.656 45.7763 31.2578 45.4901 30.984C45.2163 30.7102 44.8368 30.5733 44.3515 30.5733C43.8661 30.5733 43.4804 30.7102 43.1941 30.984C42.9204 31.2578 42.7835 31.656 42.7835 32.1786V32.888C42.7835 33.4106 42.9204 33.8088 43.1941 34.0826C43.4804 34.3564 43.8661 34.4933 44.3515 34.4933ZM53.3113 42.4825C52.8385 42.4825 52.4029 42.4078 52.0047 42.2585C51.6189 42.1092 51.2829 41.8976 50.9967 41.6239C50.7229 41.3501 50.5114 41.0265 50.362 40.6532C50.2127 40.2799 50.1381 39.8692 50.1381 39.4212V38.7119C50.1381 38.2639 50.2127 37.8532 50.362 37.4799C50.5114 37.1066 50.7229 36.783 50.9967 36.5093C51.2829 36.2355 51.6189 36.0239 52.0047 35.8746C52.4029 35.7253 52.8385 35.6506 53.3113 35.6506C53.7842 35.6506 54.2136 35.7253 54.5993 35.8746C54.9851 36.0239 55.3149 36.2355 55.5886 36.5093C55.8749 36.783 56.0926 37.1066 56.242 37.4799C56.4037 37.8532 56.4846 38.2639 56.4846 38.7119V39.4212C56.4846 39.8692 56.4037 40.2799 56.242 40.6532C56.0926 41.0265 55.8749 41.3501 55.5886 41.6239C55.3149 41.8976 54.9851 42.1092 54.5993 42.2585C54.2136 42.4078 53.7842 42.4825 53.3113 42.4825ZM53.3113 41.0265C53.7967 41.0265 54.1762 40.8896 54.45 40.6159C54.7362 40.3421 54.8793 39.9439 54.8793 39.4212V38.7119C54.8793 38.1892 54.7362 37.791 54.45 37.5172C54.1762 37.2435 53.7967 37.1066 53.3113 37.1066C52.826 37.1066 52.4402 37.2435 52.154 37.5172C51.8803 37.791 51.7434 38.1892 51.7434 38.7119V39.4212C51.7434 39.9439 51.8803 40.3421 52.154 40.6159C52.4402 40.8896 52.826 41.0265 53.3113 41.0265ZM51.706 29.2667H53.498L45.9568 42.3332H44.1648L51.706 29.2667Z" fill="white"/>
</svg>
