<svg width="50" height="50" viewBox="0 0 50 50" fill="none" xmlns="http://www.w3.org/2000/svg">
<path d="M21.1737 3.33184C23.3671 1.42192 26.6329 1.42192 28.8263 3.33184C30.1083 4.44816 31.8138 4.94896 33.4958 4.70294C36.3736 4.28203 39.121 6.04769 39.9336 8.84023C40.4085 10.4724 41.5726 11.8158 43.1206 12.5182C45.769 13.7199 47.1257 16.6907 46.2995 19.4792C45.8167 21.1091 46.0696 22.8686 46.9921 24.2964C48.5705 26.7392 48.1057 29.9718 45.9031 31.871C44.6157 32.9811 43.8772 34.598 43.8814 36.2979C43.8885 39.2063 41.7498 41.6744 38.87 42.0813C37.1868 42.3192 35.6915 43.2802 34.7759 44.7125C33.2095 47.1629 30.0759 48.083 27.4333 46.8684C25.8888 46.1585 24.1112 46.1585 22.5667 46.8684C19.9241 48.083 16.7905 47.1629 15.2241 44.7125C14.3085 43.2802 12.8132 42.3192 11.13 42.0813C8.25022 41.6744 6.11153 39.2063 6.11862 36.2979C6.12276 34.598 5.38433 32.9811 4.09693 31.871C1.8943 29.9718 1.42952 26.7392 3.00786 24.2964C3.93037 22.8686 4.18334 21.1091 3.70045 19.4792C2.87428 16.6907 4.23097 13.7199 6.87945 12.5182C8.42744 11.8158 9.59149 10.4724 10.0664 8.84023C10.879 6.04769 13.6264 4.28203 16.5042 4.70294C18.1862 4.94896 19.8917 4.44816 21.1737 3.33184Z" fill="#FD4D35"/>
<path d="M8.99967 25.6537H13.6663V26.747H8.99967V25.6537ZM18.4021 29.7737C17.9222 29.7737 17.4822 29.6981 17.0822 29.547C16.6911 29.3959 16.3533 29.1603 16.0688 28.8403C15.7933 28.5203 15.58 28.1115 15.4289 27.6137C15.2777 27.107 15.2022 26.4981 15.2022 25.787V25.0137C15.2022 24.1426 15.2777 23.4049 15.4289 22.8004C15.5889 22.1871 15.8111 21.6938 16.0955 21.3204C16.3888 20.9382 16.7355 20.6627 17.1355 20.4938C17.5355 20.316 17.9799 20.2271 18.4688 20.2271C18.8421 20.2271 19.1799 20.2849 19.4821 20.4004C19.7844 20.5071 20.051 20.6582 20.2821 20.8538C20.5132 21.0404 20.7043 21.2671 20.8554 21.5338C21.0066 21.8004 21.1221 22.0893 21.2021 22.4004H19.8821C19.7844 22.1338 19.6244 21.9071 19.4021 21.7204C19.1799 21.5249 18.8688 21.4271 18.4688 21.4271C18.1844 21.4271 17.9222 21.476 17.6822 21.5738C17.4422 21.6627 17.2333 21.8226 17.0555 22.0538C16.8866 22.276 16.7488 22.5738 16.6422 22.9471C16.5444 23.3204 16.4822 23.7871 16.4555 24.3471C16.6955 24.0537 16.9844 23.8271 17.3222 23.6671C17.6688 23.5071 18.051 23.4271 18.4688 23.4271C19.411 23.4271 20.1443 23.6937 20.6688 24.2271C21.2021 24.7604 21.4688 25.5115 21.4688 26.4804V26.7204C21.4688 27.1826 21.3888 27.6048 21.2288 27.987C21.0777 28.3603 20.8643 28.6803 20.5888 28.947C20.3132 29.2137 19.9888 29.4181 19.6155 29.5603C19.2421 29.7025 18.8377 29.7737 18.4021 29.7737ZM16.5088 26.6537C16.5088 27.2848 16.6866 27.7648 17.0422 28.0937C17.3977 28.4137 17.851 28.5737 18.4021 28.5737C18.9444 28.5737 19.371 28.4092 19.6821 28.0803C20.0021 27.7515 20.1621 27.2981 20.1621 26.7204V26.4804C20.1621 25.8937 20.0021 25.4404 19.6821 25.1204C19.3621 24.7915 18.931 24.6271 18.3888 24.6271C17.8022 24.6271 17.3399 24.7871 17.0022 25.1071C16.6733 25.427 16.5088 25.8626 16.5088 26.4137V26.6537ZM26.3317 29.7737C25.8428 29.7737 25.3984 29.6937 24.9984 29.5337C24.6073 29.3737 24.274 29.1203 23.9984 28.7737C23.7229 28.4181 23.5095 27.9648 23.3584 27.4137C23.2073 26.8537 23.1318 26.1781 23.1318 25.387V24.6137C23.1318 23.8315 23.2073 23.1649 23.3584 22.6138C23.5095 22.0538 23.7229 21.6004 23.9984 21.2538C24.2829 20.8982 24.6206 20.6404 25.0117 20.4804C25.4117 20.3116 25.8517 20.2271 26.3317 20.2271C26.8206 20.2271 27.2606 20.3071 27.6517 20.4671C28.0517 20.6271 28.3895 20.8849 28.665 21.2404C28.9406 21.5871 29.1539 22.0404 29.305 22.6004C29.4561 23.1515 29.5317 23.8226 29.5317 24.6137V25.387C29.5317 26.1693 29.4561 26.8404 29.305 27.4004C29.1539 27.9515 28.9361 28.4048 28.6517 28.7603C28.3761 29.107 28.0384 29.3648 27.6384 29.5337C27.2473 29.6937 26.8117 29.7737 26.3317 29.7737ZM26.3317 28.5737C26.6251 28.5737 26.8873 28.5248 27.1184 28.427C27.3584 28.3203 27.5584 28.147 27.7184 27.907C27.8784 27.6581 28.0028 27.3292 28.0917 26.9204C28.1806 26.5115 28.225 26.0004 28.225 25.387V24.6137C28.225 24.0004 28.1806 23.4937 28.0917 23.0937C28.0028 22.6849 27.8739 22.356 27.705 22.1071C27.545 21.8582 27.3451 21.6849 27.1051 21.5871C26.8739 21.4804 26.6162 21.4271 26.3317 21.4271C26.0384 21.4271 25.7717 21.4804 25.5317 21.5871C25.3006 21.6849 25.1051 21.8582 24.9451 22.1071C24.7851 22.3471 24.6606 22.6715 24.5718 23.0804C24.4829 23.4893 24.4384 24.0004 24.4384 24.6137V25.387C24.4384 26.0004 24.4829 26.5115 24.5718 26.9204C24.6606 27.3204 24.7851 27.6448 24.9451 27.8937C25.114 28.1426 25.314 28.3203 25.5451 28.427C25.7851 28.5248 26.0473 28.5737 26.3317 28.5737ZM33.203 25.1071C32.8652 25.1071 32.5541 25.0537 32.2697 24.9471C31.9941 24.8404 31.7541 24.6893 31.5497 24.4937C31.3541 24.2982 31.203 24.0671 31.0964 23.8004C30.9897 23.5337 30.9364 23.2404 30.9364 22.9204V22.4138C30.9364 22.0938 30.9897 21.8004 31.0964 21.5338C31.203 21.2671 31.3541 21.036 31.5497 20.8404C31.7541 20.6449 31.9941 20.4938 32.2697 20.3871C32.5541 20.2804 32.8652 20.2271 33.203 20.2271C33.5408 20.2271 33.8474 20.2804 34.123 20.3871C34.3985 20.4938 34.6341 20.6449 34.8296 20.8404C35.0341 21.036 35.1896 21.2671 35.2963 21.5338C35.4119 21.8004 35.4696 22.0938 35.4696 22.4138V22.9204C35.4696 23.2404 35.4119 23.5337 35.2963 23.8004C35.1896 24.0671 35.0341 24.2982 34.8296 24.4937C34.6341 24.6893 34.3985 24.8404 34.123 24.9471C33.8474 25.0537 33.5408 25.1071 33.203 25.1071ZM33.203 24.0671C33.5497 24.0671 33.8208 23.9693 34.0163 23.7737C34.2208 23.5782 34.323 23.2937 34.323 22.9204V22.4138C34.323 22.0404 34.2208 21.756 34.0163 21.5604C33.8208 21.3649 33.5497 21.2671 33.203 21.2671C32.8563 21.2671 32.5808 21.3649 32.3763 21.5604C32.1808 21.756 32.083 22.0404 32.083 22.4138V22.9204C32.083 23.2937 32.1808 23.5782 32.3763 23.7737C32.5808 23.9693 32.8563 24.0671 33.203 24.0671ZM39.6029 29.7737C39.2651 29.7737 38.954 29.7203 38.6696 29.6137C38.394 29.507 38.154 29.3559 37.9496 29.1603C37.754 28.9648 37.6029 28.7337 37.4963 28.467C37.3896 28.2003 37.3363 27.907 37.3363 27.587V27.0804C37.3363 26.7604 37.3896 26.467 37.4963 26.2004C37.6029 25.9337 37.754 25.7026 37.9496 25.507C38.154 25.3115 38.394 25.1604 38.6696 25.0537C38.954 24.9471 39.2651 24.8937 39.6029 24.8937C39.9407 24.8937 40.2473 24.9471 40.5229 25.0537C40.7985 25.1604 41.034 25.3115 41.2296 25.507C41.434 25.7026 41.5896 25.9337 41.6962 26.2004C41.8118 26.467 41.8695 26.7604 41.8695 27.0804V27.587C41.8695 27.907 41.8118 28.2003 41.6962 28.467C41.5896 28.7337 41.434 28.9648 41.2296 29.1603C41.034 29.3559 40.7985 29.507 40.5229 29.6137C40.2473 29.7203 39.9407 29.7737 39.6029 29.7737ZM39.6029 28.7337C39.9496 28.7337 40.2207 28.6359 40.4162 28.4403C40.6207 28.2448 40.7229 27.9603 40.7229 27.587V27.0804C40.7229 26.707 40.6207 26.4226 40.4162 26.227C40.2207 26.0315 39.9496 25.9337 39.6029 25.9337C39.2563 25.9337 38.9807 26.0315 38.7763 26.227C38.5807 26.4226 38.4829 26.707 38.4829 27.0804V27.587C38.4829 27.9603 38.5807 28.2448 38.7763 28.4403C38.9807 28.6359 39.2563 28.7337 39.6029 28.7337ZM38.4563 20.3338H39.7362L34.3496 29.667H33.0697L38.4563 20.3338Z" fill="white"/>
</svg>
