<svg width="70" height="70" viewBox="0 0 70 70" fill="none" xmlns="http://www.w3.org/2000/svg">
<path d="M29.6432 4.66458C32.7139 1.99069 37.2861 1.99069 40.3568 4.66458C42.1516 6.22742 44.5393 6.92854 46.8941 6.58412C50.923 5.99484 54.7694 8.46677 55.907 12.3763C56.5719 14.6614 58.2016 16.5421 60.3688 17.5255C64.0766 19.2079 65.976 23.367 64.8194 27.2709C64.1433 29.5527 64.4975 32.016 65.789 34.0149C67.9987 37.4349 67.348 41.9606 64.2643 44.6195C62.4619 46.1735 61.4281 48.4372 61.4339 50.8171C61.4439 54.8888 58.4497 58.3442 54.418 58.9139C52.0616 59.2468 49.9681 60.5923 48.6863 62.5974C46.4933 66.0281 42.1063 67.3163 38.4067 65.6158C36.2443 64.6219 33.7557 64.6219 31.5933 65.6158C27.8937 67.3163 23.5067 66.0281 21.3137 62.5974C20.0319 60.5923 17.9384 59.2468 15.582 58.9139C11.5503 58.3442 8.55615 54.8888 8.56606 50.8171C8.57186 48.4372 7.53806 46.1735 5.7357 44.6195C2.65203 41.9606 2.00133 37.4349 4.211 34.0149C5.50251 32.016 5.85668 29.5527 5.18064 27.2709C4.02399 23.367 5.92336 19.2079 9.63123 17.5255C11.7984 16.5421 13.4281 14.6614 14.093 12.3763C15.2306 8.46677 19.077 5.99484 23.1059 6.58412C25.4607 6.92854 27.8484 6.22742 29.6432 4.66458Z" fill="#FD4D35"/>
<path d="M12.6001 36.7147H19.1333V38.2454H12.6001V36.7147ZM20.4436 37.7974L26.2302 29.2668H28.5075V37.7974H30.1502V39.4027H28.5075V42.3333H26.7529V39.4027H20.4436V37.7974ZM26.7529 37.7974V31.2268L22.3663 37.7974H26.7529ZM36.3181 42.4827C35.6337 42.4827 35.0114 42.3707 34.4515 42.1467C33.9039 41.9227 33.4372 41.568 33.0515 41.0827C32.6657 40.5849 32.367 39.9503 32.1555 39.1787C31.9439 38.3947 31.8382 37.449 31.8382 36.3414V35.2588C31.8382 34.1637 31.9439 33.2304 32.1555 32.4588C32.367 31.6748 32.6657 31.0402 33.0515 30.5548C33.4497 30.0571 33.9226 29.6962 34.4701 29.4722C35.0301 29.2357 35.6461 29.1175 36.3181 29.1175C37.0025 29.1175 37.6185 29.2295 38.1661 29.4535C38.7261 29.6775 39.1989 30.0384 39.5847 30.5362C39.9705 31.0215 40.2692 31.6561 40.4807 32.4401C40.6923 33.2117 40.798 34.1512 40.798 35.2588V36.3414C40.798 37.4365 40.6923 38.3761 40.4807 39.1601C40.2692 39.9316 39.9643 40.5663 39.5661 41.064C39.1803 41.5494 38.7074 41.9102 38.1474 42.1467C37.5999 42.3707 36.9901 42.4827 36.3181 42.4827ZM36.3181 40.8027C36.7288 40.8027 37.0959 40.7343 37.4194 40.5974C37.7554 40.448 38.0354 40.2054 38.2594 39.8694C38.4834 39.5209 38.6576 39.0605 38.7821 38.4881C38.9065 37.9156 38.9687 37.2001 38.9687 36.3414V35.2588C38.9687 34.4001 38.9065 33.6908 38.7821 33.1308C38.6576 32.5584 38.4772 32.0979 38.2407 31.7495C38.0167 31.401 37.7367 31.1584 37.4007 31.0215C37.0772 30.8722 36.7163 30.7975 36.3181 30.7975C35.9074 30.7975 35.5341 30.8722 35.1981 31.0215C34.8746 31.1584 34.6008 31.401 34.3768 31.7495C34.1528 32.0855 33.9786 32.5397 33.8541 33.1121C33.7297 33.6846 33.6675 34.4001 33.6675 35.2588V36.3414C33.6675 37.2001 33.7297 37.9156 33.8541 38.4881C33.9786 39.0481 34.1528 39.5023 34.3768 39.8507C34.6132 40.1991 34.8932 40.448 35.2168 40.5974C35.5528 40.7343 35.9199 40.8027 36.3181 40.8027ZM45.9379 35.9494C45.465 35.9494 45.0294 35.8748 44.6312 35.7254C44.2454 35.5761 43.9094 35.3645 43.6232 35.0908C43.3495 34.817 43.1379 34.4934 42.9886 34.1201C42.8392 33.7468 42.7646 33.3361 42.7646 32.8881V32.1788C42.7646 31.7308 42.8392 31.3202 42.9886 30.9468C43.1379 30.5735 43.3495 30.2499 43.6232 29.9762C43.9094 29.7024 44.2454 29.4908 44.6312 29.3415C45.0294 29.1922 45.465 29.1175 45.9379 29.1175C46.4107 29.1175 46.8401 29.1922 47.2258 29.3415C47.6116 29.4908 47.9414 29.7024 48.2152 29.9762C48.5014 30.2499 48.7192 30.5735 48.8685 30.9468C49.0303 31.3202 49.1112 31.7308 49.1112 32.1788V32.8881C49.1112 33.3361 49.0303 33.7468 48.8685 34.1201C48.7192 34.4934 48.5014 34.817 48.2152 35.0908C47.9414 35.3645 47.6116 35.5761 47.2258 35.7254C46.8401 35.8748 46.4107 35.9494 45.9379 35.9494ZM45.9379 34.4934C46.4232 34.4934 46.8027 34.3566 47.0765 34.0828C47.3627 33.809 47.5058 33.4108 47.5058 32.8881V32.1788C47.5058 31.6561 47.3627 31.2579 47.0765 30.9842C46.8027 30.7104 46.4232 30.5735 45.9379 30.5735C45.4525 30.5735 45.0668 30.7104 44.7805 30.9842C44.5068 31.2579 44.3699 31.6561 44.3699 32.1788V32.8881C44.3699 33.4108 44.5068 33.809 44.7805 34.0828C45.0668 34.3566 45.4525 34.4934 45.9379 34.4934ZM54.8977 42.4827C54.4249 42.4827 53.9893 42.408 53.5911 42.2587C53.2053 42.1093 52.8693 41.8978 52.5831 41.624C52.3093 41.3502 52.0978 41.0267 51.9485 40.6534C51.7991 40.28 51.7245 39.8694 51.7245 39.4214V38.7121C51.7245 38.2641 51.7991 37.8534 51.9485 37.4801C52.0978 37.1067 52.3093 36.7832 52.5831 36.5094C52.8693 36.2356 53.2053 36.0241 53.5911 35.8748C53.9893 35.7254 54.4249 35.6508 54.8977 35.6508C55.3706 35.6508 55.8 35.7254 56.1857 35.8748C56.5715 36.0241 56.9013 36.2356 57.1751 36.5094C57.4613 36.7832 57.679 37.1067 57.8284 37.4801C57.9902 37.8534 58.071 38.2641 58.071 38.7121V39.4214C58.071 39.8694 57.9902 40.28 57.8284 40.6534C57.679 41.0267 57.4613 41.3502 57.1751 41.624C56.9013 41.8978 56.5715 42.1093 56.1857 42.2587C55.8 42.408 55.3706 42.4827 54.8977 42.4827ZM54.8977 41.0267C55.3831 41.0267 55.7626 40.8898 56.0364 40.616C56.3226 40.3423 56.4657 39.944 56.4657 39.4214V38.7121C56.4657 38.1894 56.3226 37.7912 56.0364 37.5174C55.7626 37.2436 55.3831 37.1067 54.8977 37.1067C54.4124 37.1067 54.0266 37.2436 53.7404 37.5174C53.4667 37.7912 53.3298 38.1894 53.3298 38.7121V39.4214C53.3298 39.944 53.4667 40.3423 53.7404 40.616C54.0266 40.8898 54.4124 41.0267 54.8977 41.0267ZM53.2924 29.2668H55.0844L47.5432 42.3333H45.7512L53.2924 29.2668Z" fill="white"/>
</svg>
